<svg width="18" height="18" viewBox="0 0 18 18" fill="none" xmlns="http://www.w3.org/2000/svg">
<path d="M6.27803 13.1254C6.49686 13.1254 6.70673 13.2123 6.86147 13.3671C7.01621 13.5218 7.10314 13.7317 7.10314 13.9505C7.10314 14.1693 7.01621 14.3792 6.86147 14.5339C6.70673 14.6887 6.49686 14.7756 6.27803 14.7756C6.05919 14.7756 5.84932 14.6887 5.69458 14.5339C5.53985 14.3792 5.45291 14.1693 5.45291 13.9505C5.45291 13.7317 5.53985 13.5218 5.69458 13.3671C5.84932 13.2123 6.05919 13.1254 6.27803 13.1254ZM13.2898 7.3496C13.8369 7.3496 14.3616 7.56693 14.7484 7.95377C15.1353 8.34062 15.3526 8.8653 15.3526 9.41238C15.3526 9.95946 15.1353 10.4841 14.7484 10.871C14.3616 11.2578 13.8369 11.4752 13.2898 11.4752L13.2469 11.4735L13.1529 11.4809L12.5406 11.4801C12.633 11.7037 12.6842 11.9488 12.6842 12.2062C12.6873 12.4645 12.6387 12.7209 12.5414 12.9601C12.444 13.1994 12.2998 13.4169 12.1173 13.5996C11.9347 13.7824 11.7175 13.9269 11.4783 14.0246C11.2391 14.1222 10.9829 14.1711 10.7246 14.1683C9.89697 14.1683 9.28886 13.802 8.96707 13.198C8.89355 13.0595 8.87538 12.8982 8.91621 12.7468C8.95704 12.5954 9.05383 12.4651 9.18702 12.3823C9.32021 12.2995 9.47986 12.2704 9.63371 12.3008C9.78755 12.3312 9.92411 12.4189 10.0158 12.5462L10.0983 12.6806C10.2105 12.8407 10.3953 12.9307 10.7254 12.9307C10.8211 12.9334 10.9164 12.9165 11.0054 12.8811C11.0943 12.8456 11.1751 12.7923 11.2426 12.7244C11.3102 12.6565 11.3631 12.5755 11.3982 12.4864C11.4333 12.3973 11.4497 12.3019 11.4465 12.2062C11.4465 11.8432 11.1478 11.5337 10.7501 11.4917L10.5727 11.4809H2.7713C2.61451 11.4809 2.46358 11.4213 2.34901 11.3143C2.23445 11.2072 2.16478 11.0607 2.15409 10.9043C2.14341 10.7479 2.1925 10.5932 2.29144 10.4716C2.39039 10.3499 2.53181 10.2704 2.68714 10.249L2.7713 10.2433H13.1529L13.1925 10.2449L13.2411 10.2391L13.3864 10.2317C13.5278 10.2148 13.6624 10.1615 13.7771 10.0771C13.8918 9.9927 13.9827 9.88006 14.041 9.75011C14.0993 9.62017 14.1229 9.47736 14.1096 9.33557C14.0964 9.19378 14.0466 9.05783 13.9652 8.94097C13.8839 8.8241 13.7736 8.73028 13.6452 8.66865C13.5168 8.60701 13.3747 8.57965 13.2326 8.58923C13.0905 8.59881 12.9533 8.645 12.8344 8.72332C12.7154 8.80163 12.6188 8.90939 12.5538 9.03613L12.4796 9.20693C12.4064 9.34578 12.2833 9.45167 12.135 9.50315C11.9868 9.55463 11.8245 9.54786 11.681 9.48421C11.5376 9.42056 11.4237 9.30478 11.3624 9.16031C11.3011 9.01585 11.2969 8.85348 11.3508 8.70608C11.496 8.30847 11.7598 7.96508 12.1067 7.72244C12.4535 7.47981 12.8665 7.34965 13.2898 7.3496ZM8.33916 3.21991C9.07527 3.21796 9.78435 3.49718 10.3215 4.00052C10.8586 4.50386 11.1833 5.19332 11.2291 5.92801C11.2749 6.6627 11.0385 7.38716 10.568 7.95335C10.0976 8.51953 9.42873 8.88471 8.69808 8.97424L8.61557 8.99075L8.53058 8.9957H2.7713C2.61451 8.99565 2.46358 8.93609 2.34901 8.82905C2.23445 8.72201 2.16478 8.57547 2.15409 8.41904C2.14341 8.26262 2.1925 8.10797 2.29144 7.98634C2.39039 7.86471 2.53181 7.78518 2.68714 7.7638L2.7713 7.75803H8.33998C8.66636 7.75803 8.98542 7.66124 9.2568 7.47992C9.52818 7.29859 9.73969 7.04086 9.86459 6.73932C9.98949 6.43778 10.0222 6.10597 9.9585 5.78586C9.89482 5.46575 9.73765 5.17171 9.50687 4.94092C9.27608 4.71013 8.98204 4.55296 8.66192 4.48929C8.34181 4.42562 8.01001 4.45829 7.70847 4.5832C7.40693 4.7081 7.1492 4.91961 6.96787 5.19099C6.78654 5.46237 6.68976 5.78142 6.68976 6.1078C6.68976 6.27193 6.62456 6.42933 6.50851 6.54539C6.39245 6.66144 6.23505 6.72664 6.07092 6.72664C5.9068 6.72664 5.7494 6.66144 5.63334 6.54539C5.51729 6.42933 5.45209 6.27193 5.45209 6.1078C5.45209 5.34189 5.75635 4.60734 6.29793 4.06576C6.83952 3.52417 7.57324 3.21991 8.33916 3.21991ZM2.97758 3.22404C3.19641 3.22404 3.40628 3.31097 3.56102 3.46571C3.71576 3.62045 3.80269 3.83032 3.80269 4.04915C3.80269 4.26798 3.71576 4.47785 3.56102 4.63259C3.40628 4.78733 3.19641 4.87426 2.97758 4.87426C2.75874 4.87426 2.54887 4.78733 2.39414 4.63259C2.2394 4.47785 2.15247 4.26798 2.15247 4.04915C2.15247 3.83032 2.2394 3.62045 2.39414 3.46571C2.54887 3.31097 2.75874 3.22404 2.97758 3.22404ZM14.5291 2.39893C14.748 2.39893 14.9579 2.48586 15.1126 2.6406C15.2673 2.79533 15.3543 3.0052 15.3543 3.22404C15.3543 3.44287 15.2673 3.65274 15.1126 3.80748C14.9579 3.96222 14.748 4.04915 14.5291 4.04915C14.3103 4.04915 14.1004 3.96222 13.9457 3.80748C13.791 3.65274 13.704 3.44287 13.704 3.22404C13.704 3.0052 13.791 2.79533 13.9457 2.6406C14.1004 2.48586 14.3103 2.39893 14.5291 2.39893Z" fill="#54B6E9"/>
</svg>
