<svg width="21" height="20" viewBox="0 0 21 20" fill="none" xmlns="http://www.w3.org/2000/svg">
<path d="M14.3722 14.9505C14.1533 14.9505 13.9435 14.8636 13.7887 14.7088C13.634 14.5541 13.5471 14.3442 13.5471 14.1254C13.5471 13.9066 13.634 13.6967 13.7887 13.5419C13.9435 13.3872 14.1533 13.3003 14.3722 13.3003C15.7369 13.3003 16.8475 12.1897 16.8475 10.8249C16.8475 9.46021 15.7369 8.34961 14.3722 8.34961C14.1717 8.34961 13.9596 8.38343 13.7038 8.45687L12.8168 8.71018L12.6642 7.80008C12.5378 7.03146 12.1422 6.33281 11.5482 5.82889C10.9542 5.32498 10.2004 5.04861 9.42149 5.04916C8.93142 5.04963 8.44759 5.15912 8.00506 5.3697C7.56253 5.58028 7.1724 5.88668 6.86293 6.26668C6.55346 6.64668 6.33241 7.09078 6.2158 7.56677C6.09918 8.04277 6.08993 8.53875 6.1887 9.01877L6.39003 10.0081L5.21837 9.99488C4.38583 9.99983 3.64571 10.74 3.64571 11.6501C3.64571 12.5602 4.38583 13.3003 5.29593 13.3003C5.51477 13.3003 5.72464 13.3872 5.87937 13.5419C6.03411 13.6967 6.12104 13.9066 6.12104 14.1254C6.12104 14.3442 6.03411 14.5541 5.87937 14.7088C5.72464 14.8636 5.51477 14.9505 5.29593 14.9505C3.47573 14.9505 1.99548 13.4703 1.99548 11.6501C1.99633 10.9184 2.23988 10.2076 2.68798 9.62917C3.13607 9.05073 3.76338 8.63727 4.47164 8.45357L4.47082 8.34961C4.47082 5.61931 6.6912 3.39893 9.42149 3.39893C10.4467 3.39723 11.4469 3.7155 12.2825 4.30936C13.1182 4.90321 13.7478 5.74305 14.0834 6.71176C16.5084 6.51043 18.4977 8.45522 18.4977 10.8249C18.4977 13.0998 16.647 14.9505 14.3722 14.9505ZM9.00894 14.9505L9.83405 12.4752L10.6592 14.9505C10.7022 15.081 10.7137 15.2199 10.6926 15.3557C10.6716 15.4915 10.6186 15.6204 10.5381 15.7318C10.4576 15.8432 10.3517 15.9338 10.2294 15.9964C10.107 16.0589 9.97149 16.0915 9.83405 16.0915C9.69661 16.0915 9.56113 16.0589 9.43874 15.9964C9.31635 15.9338 9.21054 15.8432 9.13 15.7318C9.04947 15.6204 8.9965 15.4915 8.97545 15.3557C8.95441 15.2199 8.96588 15.081 9.00894 14.9505ZM11.4843 16.6007L12.3094 14.1254L13.1345 16.6007C13.1776 16.7312 13.189 16.8701 13.168 17.0059C13.1469 17.1418 13.094 17.2707 13.0134 17.382C12.9329 17.4934 12.8271 17.5841 12.7047 17.6466C12.5823 17.7091 12.4468 17.7417 12.3094 17.7417C12.1719 17.7417 12.0365 17.7091 11.9141 17.6466C11.7917 17.5841 11.6859 17.4934 11.6053 17.382C11.5248 17.2707 11.4718 17.1418 11.4508 17.0059C11.4297 16.8701 11.4412 16.7312 11.4843 16.6007ZM6.5336 16.6007L7.35871 14.1254L8.18382 16.6007C8.22688 16.7312 8.23835 16.8701 8.21731 17.0059C8.19626 17.1418 8.1433 17.2707 8.06276 17.382C7.98222 17.4934 7.87641 17.5841 7.75402 17.6466C7.63163 17.7091 7.49615 17.7417 7.35871 17.7417C7.22127 17.7417 7.08579 17.7091 6.9634 17.6466C6.84101 17.5841 6.7352 17.4934 6.65467 17.382C6.57413 17.2707 6.52116 17.1418 6.50012 17.0059C6.47907 16.8701 6.49055 16.7312 6.5336 16.6007Z" fill="#54B6E9"/>
</svg>
