<svg width="21" height="20" viewBox="0 0 21 20" fill="none" xmlns="http://www.w3.org/2000/svg">
<path d="M11.3095 3.39885L10.4844 5.81973L9.65926 3.39885C9.61477 3.26774 9.60216 3.12791 9.62249 2.99095C9.64282 2.85399 9.6955 2.72385 9.77615 2.61131C9.85681 2.49877 9.96312 2.40707 10.0863 2.34381C10.2094 2.28055 10.3459 2.24756 10.4844 2.24756C10.6228 2.24756 10.7593 2.28055 10.8825 2.34381C11.0056 2.40707 11.1119 2.49877 11.1926 2.61131C11.2732 2.72385 11.3259 2.85399 11.3462 2.99095C11.3666 3.12791 11.354 3.26774 11.3095 3.39885ZM3.88347 9.17464L6.30435 9.99975L3.88347 10.8249C3.75236 10.8694 3.61253 10.882 3.47557 10.8616C3.33861 10.8413 3.20847 10.7886 3.09593 10.708C2.98339 10.6273 2.89169 10.521 2.82843 10.3978C2.76517 10.2747 2.73218 10.1382 2.73218 9.99975C2.73218 9.86129 2.76517 9.72483 2.82843 9.60166C2.89169 9.4785 2.98339 9.37219 3.09593 9.29153C3.20847 9.21088 3.33861 9.1582 3.47557 9.13787C3.61253 9.11754 3.75236 9.13015 3.88347 9.17464ZM9.65926 16.6006L10.4844 14.1798L11.3095 16.6006C11.354 16.7318 11.3666 16.8716 11.3462 17.0085C11.3259 17.1455 11.2732 17.2756 11.1926 17.3882C11.1119 17.5007 11.0056 17.5924 10.8825 17.6557C10.7593 17.7189 10.6228 17.7519 10.4844 17.7519C10.3459 17.7519 10.2094 17.7189 10.0863 17.6557C9.96312 17.5924 9.85681 17.5007 9.77615 17.3882C9.6955 17.2756 9.64282 17.1455 9.62249 17.0085C9.60216 16.8716 9.61477 16.7318 9.65926 16.6006ZM17.0853 10.8232L14.6644 9.9981L17.0853 9.17299C17.2164 9.1285 17.3562 9.11589 17.4932 9.13622C17.6301 9.15655 17.7603 9.20923 17.8728 9.28988C17.9853 9.37054 18.077 9.47685 18.1403 9.60001C18.2036 9.72318 18.2366 9.85964 18.2366 9.9981C18.2366 10.1366 18.2036 10.273 18.1403 10.3962C18.077 10.5193 17.9853 10.6257 17.8728 10.7063C17.7603 10.787 17.6301 10.8396 17.4932 10.86C17.3562 10.8803 17.2164 10.8677 17.0853 10.8232ZM6.40006 4.74874L7.52799 7.04337L5.23335 5.91544C5.10866 5.85443 5.00032 5.76453 4.91737 5.65321C4.83441 5.5419 4.77922 5.41239 4.7564 5.27545C4.73357 5.13851 4.74376 4.99811 4.78613 4.8659C4.82849 4.7337 4.90181 4.61352 4.99997 4.51535C5.09814 4.41719 5.21832 4.34388 5.35052 4.30151C5.48273 4.25915 5.62313 4.24895 5.76007 4.27178C5.89701 4.2946 6.02652 4.34979 6.13783 4.43275C6.24914 4.5157 6.33905 4.62404 6.40006 4.74874ZM5.23335 14.0832L7.52799 12.9553L6.40006 15.2499C6.33905 15.3746 6.24914 15.483 6.13783 15.5659C6.02652 15.6489 5.89701 15.7041 5.76007 15.7269C5.62313 15.7497 5.48273 15.7395 5.35052 15.6972C5.21832 15.6548 5.09814 15.5815 4.99997 15.4833C4.90181 15.3852 4.82849 15.265 4.78613 15.1328C4.74376 15.0006 4.73357 14.8602 4.7564 14.7232C4.77922 14.5863 4.83441 14.4568 4.91737 14.3455C5.00032 14.2341 5.10866 14.1442 5.23335 14.0832ZM14.5678 15.2499L13.4399 12.9553L15.7346 14.0832C15.8593 14.1442 15.9676 14.2341 16.0505 14.3455C16.1335 14.4568 16.1887 14.5863 16.2115 14.7232C16.2343 14.8602 16.2241 15.0006 16.1818 15.1328C16.1394 15.265 16.0661 15.3852 15.9679 15.4833C15.8698 15.5815 15.7496 15.6548 15.6174 15.6972C15.4852 15.7395 15.3448 15.7497 15.2078 15.7269C15.0709 15.7041 14.9414 15.6489 14.8301 15.5659C14.7188 15.483 14.6289 15.3746 14.5678 15.2499ZM15.7337 5.91379L13.4383 7.04255L14.567 4.74708C14.628 4.62239 14.7179 4.51405 14.8293 4.4311C14.9406 4.34814 15.0701 4.29295 15.207 4.27013C15.344 4.2473 15.4844 4.2575 15.6166 4.29986C15.7488 4.34223 15.8689 4.41554 15.9671 4.5137C16.0653 4.61187 16.1386 4.73205 16.181 4.86425C16.2233 4.99646 16.2335 5.13686 16.2107 5.2738C16.1879 5.41074 16.1327 5.54025 16.0497 5.65156C15.9668 5.76288 15.8584 5.85278 15.7337 5.91379ZM10.4844 13.7128C8.43726 13.7128 6.77136 12.0469 6.77136 9.99975C6.77136 7.95265 8.43726 6.28674 10.4844 6.28674C12.5315 6.28674 14.1974 7.95265 14.1974 9.99975C14.1974 12.0469 12.5315 13.7128 10.4844 13.7128ZM10.4844 7.93697C9.34654 7.93697 8.42159 8.86192 8.42159 9.99975C8.42159 11.1376 9.34654 12.0625 10.4844 12.0625C11.6222 12.0625 12.5471 11.1376 12.5471 9.99975C12.5471 8.86192 11.6222 7.93697 10.4844 7.93697Z" fill="#54B6E9"/>
</svg>
