<svg width="21" height="20" viewBox="0 0 21 20" fill="none" xmlns="http://www.w3.org/2000/svg">
<g clip-path="url(#clip0_524_1745)">
<path d="M14.7534 14.9505C14.5346 14.9505 14.3247 14.8636 14.1699 14.7088C14.0152 14.5541 13.9283 14.3442 13.9283 14.1254C13.9283 13.9066 14.0152 13.6967 14.1699 13.5419C14.3247 13.3872 14.5346 13.3003 14.7534 13.3003C16.1181 13.3003 17.2287 12.1897 17.2287 10.8249C17.2287 9.46021 16.1181 8.34961 14.7534 8.34961C14.557 8.34961 14.3441 8.38426 14.0826 8.4577L13.1989 8.70605L13.0454 7.80008C12.919 7.03146 12.5234 6.33281 11.9294 5.82889C11.3354 5.32498 10.5817 5.04861 9.80272 5.04916C9.31312 5.0499 8.8298 5.15943 8.38771 5.36981C7.94562 5.5802 7.5558 5.8862 7.24644 6.26568C6.93708 6.64515 6.7159 7.08863 6.5989 7.56405C6.4819 8.03946 6.47201 8.53494 6.56993 9.01465L6.78446 10.0378L5.5996 9.99488C4.76623 9.99983 4.02693 10.74 4.02693 11.6501C4.02693 12.5602 4.76623 13.3003 5.67716 13.3003C5.89599 13.3003 6.10586 13.3872 6.2606 13.5419C6.41534 13.6967 6.50227 13.9066 6.50227 14.1254C6.50227 14.3442 6.41534 14.5541 6.2606 14.7088C6.10586 14.8636 5.89599 14.9505 5.67716 14.9505C3.85779 14.9505 2.37671 13.4703 2.37671 11.6501C2.37761 10.9182 2.62128 10.2074 3.06953 9.62896C3.51778 9.05051 4.14528 8.63712 4.8537 8.45357L4.85205 8.34961C4.85205 5.61931 7.07242 3.39893 9.80272 3.39893C10.8278 3.39716 11.8279 3.71541 12.6635 4.30929C13.4991 4.90317 14.1284 5.74305 14.4638 6.71176C16.8772 6.51291 18.879 8.45439 18.879 10.8249C18.879 13.0998 17.0282 14.9505 14.7534 14.9505ZM11.1551 11.6501L7.44207 14.9926L9.91741 16.1882L8.67974 19.0761L12.3927 15.7344L9.91741 14.5379L11.1551 11.6501Z" fill="#54B6E9"/>
</g>
<defs>
<clipPath id="clip0_524_1745">
<rect width="19.8027" height="19.8027" fill="white" transform="translate(0.72644 0.0986328)"/>
</clipPath>
</defs>
</svg>
