<svg width="21" height="20" viewBox="0 0 21 20" fill="none" xmlns="http://www.w3.org/2000/svg">
<path d="M4.92304 13.0943C4.80938 13.0947 4.6969 13.0711 4.593 13.025C4.00499 12.7675 3.50472 12.3444 3.15334 11.8072C2.80195 11.27 2.61467 10.6421 2.61438 10.0001C2.61523 9.26845 2.85878 8.55771 3.30687 7.97927C3.75496 7.40082 4.38228 6.98736 5.09054 6.80366L5.08972 6.6997C5.08972 3.9694 7.31009 1.74903 10.0404 1.74903C11.2096 1.74751 12.3413 2.16167 13.2334 2.91754C14.1254 3.67342 14.7198 4.72179 14.9102 5.87541C14.9465 6.09118 14.8956 6.31253 14.7687 6.49078C14.6419 6.66903 14.4494 6.78959 14.2336 6.82594C14.0181 6.86067 13.7975 6.80916 13.6196 6.68255C13.4417 6.55593 13.3208 6.3644 13.2831 6.14935C13.1565 5.38088 12.7609 4.68242 12.1669 4.17867C11.5729 3.67492 10.8192 3.39868 10.0404 3.39925C9.55016 3.39957 9.06615 3.50899 8.62345 3.71957C8.18075 3.93014 7.79046 4.2366 7.48088 4.61672C7.17131 4.99683 6.9502 5.44108 6.83361 5.91724C6.71701 6.3934 6.70785 6.88955 6.80677 7.36969L7.02048 8.41758L5.83974 8.34497C5.00473 8.34993 4.2646 9.09005 4.2646 10.0001C4.2646 10.6561 4.65323 11.2502 5.25474 11.5134C5.42835 11.5894 5.57049 11.7229 5.65727 11.8914C5.74404 12.0599 5.77017 12.2531 5.73125 12.4386C5.69233 12.6241 5.59074 12.7906 5.44356 12.91C5.29638 13.0294 5.11257 13.0945 4.92304 13.0943ZM16.6413 5.87459C16.4225 5.87459 16.2126 5.96152 16.0578 6.11626C15.9031 6.271 15.8162 6.48087 15.8162 6.6997C15.8162 6.91853 15.9031 7.1284 16.0578 7.28314C16.2126 7.43788 16.4225 7.52481 16.6413 7.52481C16.8601 7.52481 17.07 7.61174 17.2247 7.76648C17.3795 7.92122 17.4664 8.13109 17.4664 8.34992C17.4664 8.56876 17.3795 8.77863 17.2247 8.93337C17.07 9.0881 16.8601 9.17504 16.6413 9.17504H8.72021C8.50138 9.17504 8.29151 9.26197 8.13677 9.41671C7.98203 9.57144 7.8951 9.78131 7.8951 10.0001C7.8951 10.219 7.98203 10.4289 8.13677 10.5836C8.29151 10.7383 8.50138 10.8253 8.72021 10.8253H12.5157C12.7346 10.8253 12.9444 10.9122 13.0992 11.0669C13.2539 11.2217 13.3408 11.4315 13.3408 11.6504C13.3408 11.8692 13.2539 12.0791 13.0992 12.2338C12.9444 12.3886 12.7346 12.4755 12.5157 12.4755H8.39016C7.02543 12.4755 5.91483 13.5861 5.91483 14.9508C5.91483 16.3156 7.02543 17.4262 8.39016 17.4262C8.609 17.4262 8.81887 17.3392 8.97361 17.1845C9.12835 17.0298 9.21528 16.8199 9.21528 16.601C9.21528 16.3822 9.12835 16.1723 8.97361 16.0176C8.81887 15.8629 8.609 15.7759 8.39016 15.7759C8.17133 15.7759 7.96146 15.689 7.80672 15.5343C7.65198 15.3795 7.56505 15.1697 7.56505 14.9508C7.56505 14.732 7.65198 14.5221 7.80672 14.3674C7.96146 14.2126 8.17133 14.1257 8.39016 14.1257H12.5157C13.8805 14.1257 14.9911 13.0151 14.9911 11.6504C14.9911 11.3591 14.9317 11.0843 14.8384 10.8253H16.6413C18.006 10.8253 19.1166 9.71466 19.1166 8.34992C19.1166 6.98519 18.006 5.87459 16.6413 5.87459Z" fill="#54B6E9"/>
</svg>
