<svg width="21" height="20" viewBox="0 0 21 20" fill="none" xmlns="http://www.w3.org/2000/svg">
<path d="M12.4529 2.57412L11.6277 5.04946L10.8026 2.57412C10.7596 2.4436 10.7481 2.30472 10.7691 2.16891C10.7902 2.03309 10.8432 1.9042 10.9237 1.79283C11.0042 1.68145 11.11 1.59078 11.2324 1.52824C11.3548 1.46571 11.4903 1.43311 11.6277 1.43311C11.7652 1.43311 11.9007 1.46571 12.0231 1.52824C12.1454 1.59078 12.2513 1.68145 12.3318 1.79283C12.4123 1.9042 12.4653 2.03309 12.4863 2.16891C12.5074 2.30472 12.4959 2.4436 12.4529 2.57412ZM16.8788 5.09071L14.5445 6.25825L15.7121 3.92401C15.8201 3.72619 16.0007 3.57799 16.2158 3.5106C16.4309 3.44321 16.6637 3.46188 16.8653 3.56269C17.0669 3.66349 17.2216 3.83857 17.2967 4.05108C17.3719 4.26358 17.3616 4.49696 17.2682 4.70209C17.1839 4.87036 17.0472 5.00673 16.8788 5.09071ZM18.2286 10.0001L15.7533 9.17502L18.2286 8.34991C18.3594 8.30637 18.4986 8.29452 18.6348 8.31532C18.771 8.33613 18.9003 8.389 19.012 8.46957C19.1238 8.55015 19.2148 8.65613 19.2776 8.77878C19.3404 8.90143 19.3731 9.03724 19.3731 9.17502C19.3731 9.3128 19.3404 9.44861 19.2776 9.57126C19.2148 9.69391 19.1238 9.79989 19.012 9.88046C18.9003 9.96104 18.771 10.0139 18.6348 10.0347C18.4986 10.0555 18.3594 10.0437 18.2286 10.0001ZM7.54344 3.92401L8.71097 6.25825L6.37673 5.09071C6.25298 5.0293 6.14562 4.93932 6.06352 4.8282C5.98143 4.71708 5.92697 4.58802 5.90463 4.45168C5.8823 4.31535 5.89273 4.17565 5.93508 4.04415C5.97742 3.91264 6.05045 3.79311 6.14814 3.69542C6.24583 3.59773 6.36537 3.52469 6.49687 3.48235C6.62838 3.44001 6.76807 3.42957 6.90441 3.45191C7.04075 3.47424 7.16981 3.52871 7.28093 3.6108C7.39204 3.69289 7.48203 3.80025 7.54344 3.92401ZM15.1559 10.2823C15.2706 9.93247 15.3407 9.56365 15.3407 9.17502C15.3407 7.12792 13.6748 5.46201 11.6277 5.46201C10.5221 5.46201 9.53444 5.95213 8.85784 6.72279L8.73985 6.69968C8.04289 6.70014 7.35394 6.84825 6.71836 7.13426C6.08278 7.42026 5.51501 7.83766 5.05243 8.35898C4.89871 8.30223 4.73208 8.29005 4.57174 8.32387C4.4114 8.35768 4.26388 8.43611 4.14617 8.55011C4.02847 8.66411 3.94536 8.80905 3.90643 8.96822C3.86751 9.12739 3.87434 9.29432 3.92615 9.44978C3.97318 9.58757 4.05652 9.69649 4.1547 9.7889C3.91369 10.3799 3.78956 11.0121 3.78918 11.6504L3.79083 11.7543C3.08241 11.9379 2.45491 12.3513 2.00666 12.9297C1.55841 13.5082 1.31474 14.219 1.31384 14.9508C1.31384 16.771 2.79492 18.2513 4.61429 18.2513H13.6905C15.9654 18.2513 17.8161 16.4005 17.8161 14.1257C17.8161 12.369 16.7071 10.8756 15.1559 10.2823ZM11.6277 7.11224C12.7656 7.11224 13.6905 8.03719 13.6905 9.17502C13.6905 9.47701 13.6113 9.75755 13.4941 10.0158C13.2021 10.0331 12.9001 10.0769 12.5717 10.1709C12.3595 9.61914 12.031 9.11948 11.6086 8.70589C11.1862 8.2923 10.6797 7.97447 10.1236 7.77398C10.3151 7.56591 10.5476 7.39971 10.8065 7.28583C11.0653 7.17195 11.3449 7.11284 11.6277 7.11224ZM13.6905 16.601H4.61429C3.70337 16.601 2.96407 15.8609 2.96407 14.9508C2.96407 14.0407 3.70337 13.3006 4.53838 13.2956L5.71169 13.3088L5.50706 12.317C5.40886 11.8372 5.41855 11.3416 5.53542 10.8659C5.65229 10.3903 5.87342 9.94662 6.18281 9.56695C6.4922 9.18728 6.88212 8.88112 7.32435 8.67064C7.76659 8.46015 8.25008 8.3506 8.73985 8.34991L8.79679 8.33836C9.55487 8.3565 10.2838 8.63437 10.8615 9.12549C11.4393 9.61661 11.831 10.2912 11.971 11.0365L12.0023 11.1899C12.0512 11.3592 12.1537 11.5081 12.2945 11.614C12.4353 11.72 12.6067 11.7773 12.7829 11.7774L13.0214 11.7584C13.2788 11.6842 13.4908 11.6504 13.6905 11.6504C15.0553 11.6504 16.1659 12.761 16.1659 14.1257C16.1659 15.4904 15.0553 16.601 13.6905 16.601Z" fill="#54B6E9"/>
</svg>
