<svg width="21" height="20" viewBox="0 0 21 20" fill="none" xmlns="http://www.w3.org/2000/svg">
<path d="M17.7848 12.5861L15.7575 12.1711L16.9812 11.8443C17.0858 11.8163 17.184 11.7679 17.2699 11.7019C17.3559 11.6359 17.428 11.5536 17.4822 11.4598C17.5363 11.3659 17.5715 11.2623 17.5856 11.1549C17.5998 11.0474 17.5926 10.9382 17.5645 10.8336C17.5365 10.7289 17.488 10.6308 17.4221 10.5448C17.3561 10.4589 17.2738 10.3867 17.18 10.3326C17.0861 10.2784 16.9825 10.2432 16.875 10.2291C16.7676 10.215 16.6584 10.2222 16.5538 10.2502L15.3095 10.5827C15.34 10.3921 15.3681 10.1999 15.3681 10.0002C15.3681 9.80054 15.34 9.60746 15.3095 9.41686L16.5554 9.7502L16.7699 9.77826C16.9701 9.77815 17.1634 9.70529 17.3138 9.57324C17.4642 9.44119 17.5615 9.25897 17.5876 9.06051C17.6136 8.86205 17.5666 8.66089 17.4554 8.4945C17.3441 8.32811 17.1762 8.20784 16.9828 8.15609L15.7592 7.82852L17.7848 7.41431C17.9198 7.38666 18.0463 7.32733 18.1538 7.24121C18.2614 7.1551 18.347 7.04465 18.4035 6.91899C18.46 6.79332 18.4858 6.65603 18.4788 6.51842C18.4719 6.38081 18.4323 6.24682 18.3634 6.12749C18.2945 6.00817 18.1983 5.90692 18.0826 5.83209C17.9669 5.75726 17.8351 5.711 17.698 5.6971C17.5609 5.68321 17.4225 5.70208 17.2941 5.75218C17.1658 5.80227 17.0511 5.88214 16.9597 5.98522L15.5875 7.53148L15.9159 6.31114C15.9441 6.20647 15.9514 6.09727 15.9374 5.98979C15.9233 5.8823 15.8883 5.77863 15.8342 5.6847C15.7249 5.49499 15.5448 5.35645 15.3334 5.29955C15.122 5.24265 14.8967 5.27206 14.707 5.38131C14.5173 5.49055 14.3787 5.67069 14.3218 5.88208L13.986 7.13377C13.6843 6.88441 13.3448 6.68471 12.9802 6.54217L13.8895 5.6329C13.9661 5.55629 14.0268 5.46534 14.0683 5.36525C14.1098 5.26516 14.1311 5.15788 14.1311 5.04954C14.1311 4.9412 14.1098 4.83392 14.0683 4.73383C14.0268 4.63374 13.9661 4.54279 13.8895 4.46619C13.8129 4.38958 13.7219 4.32881 13.6218 4.28735C13.5217 4.24589 13.4145 4.22455 13.3061 4.22455C13.1978 4.22455 13.0905 4.24589 12.9904 4.28735C12.8903 4.32881 12.7994 4.38958 12.7228 4.46619L11.8267 5.36226L12.481 3.39932C12.5241 3.26879 12.5355 3.12992 12.5145 2.9941C12.4934 2.85828 12.4405 2.72939 12.3599 2.61802C12.2794 2.50665 12.1736 2.41597 12.0512 2.35344C11.9288 2.29091 11.7933 2.2583 11.6559 2.2583C11.5184 2.2583 11.383 2.29091 11.2606 2.35344C11.1382 2.41597 11.0324 2.50665 10.9518 2.61802C10.8713 2.72939 10.8183 2.85828 10.7973 2.9941C10.7762 3.12992 10.7877 3.26879 10.8308 3.39932L11.4851 5.36226L10.589 4.46619C10.4343 4.31147 10.2245 4.22455 10.0057 4.22455C9.78686 4.22455 9.57702 4.31147 9.42231 4.46619C9.26759 4.6209 9.18068 4.83074 9.18068 5.04954C9.18068 5.26834 9.26759 5.47818 9.42231 5.6329L10.3316 6.54217C9.96728 6.68523 9.62783 6.88488 9.32577 7.13377L8.9916 5.88373C8.96512 5.77746 8.91774 5.67753 8.85224 5.58976C8.78674 5.50199 8.70441 5.42814 8.61008 5.37252C8.51574 5.31689 8.41127 5.2806 8.30276 5.26576C8.19426 5.25093 8.08388 5.25784 7.97807 5.2861C7.87226 5.31436 7.77314 5.3634 7.68648 5.43036C7.59982 5.49732 7.52736 5.58087 7.47332 5.67612C7.41927 5.77138 7.38474 5.87644 7.37172 5.98518C7.3587 6.09392 7.36746 6.20417 7.39748 6.30949L7.72423 7.53478L6.35289 5.98604C6.24539 5.86591 6.1067 5.77792 5.95221 5.73184C5.79773 5.68577 5.63349 5.68342 5.47775 5.72505C5.32201 5.76668 5.18085 5.85066 5.06996 5.96766C4.95906 6.08467 4.88276 6.23012 4.84954 6.38787C4.753 6.85819 5.05664 7.3186 5.52778 7.41514L7.55261 7.83017L6.33144 8.15691C6.13808 8.20866 5.97013 8.32893 5.85887 8.49532C5.74761 8.66171 5.70062 8.86287 5.72667 9.06133C5.75271 9.25979 5.85001 9.44202 6.00044 9.57406C6.15086 9.70611 6.34416 9.77898 6.54432 9.77908L6.75885 9.75103L8.00312 9.41768C7.96673 9.60983 7.94658 9.80469 7.94288 10.0002C7.94288 10.1999 7.97094 10.3921 8.00147 10.5836L6.7572 10.2502C6.65253 10.2222 6.54335 10.215 6.43591 10.2291C6.32847 10.2432 6.22486 10.2784 6.131 10.3326C6.03714 10.3867 5.95487 10.4589 5.88889 10.5448C5.82291 10.6308 5.7745 10.7289 5.74644 10.8336C5.71837 10.9382 5.7112 11.0474 5.72533 11.1549C5.73946 11.2623 5.77461 11.3659 5.82878 11.4598C5.88295 11.5536 5.95507 11.6359 6.04104 11.7019C6.127 11.7679 6.22512 11.8163 6.32979 11.8443L7.55343 12.1719L5.52778 12.5861C5.36921 12.618 5.2227 12.6935 5.10476 12.8041C4.98682 12.9148 4.90214 13.0562 4.86027 13.2125C4.81841 13.3687 4.82102 13.5335 4.86782 13.6883C4.91462 13.8431 5.00373 13.9818 5.12513 14.0886C5.21051 14.1645 5.31003 14.2229 5.41798 14.2603C5.52593 14.2977 5.6402 14.3134 5.75424 14.3066C5.86828 14.2997 5.97986 14.2705 6.08258 14.2205C6.18531 14.1705 6.27716 14.1007 6.35289 14.0152L7.7267 12.4656L7.39831 13.6901C7.37023 13.7948 7.36305 13.904 7.37717 14.0114C7.39129 14.1189 7.42645 14.2225 7.48062 14.3163C7.53479 14.4102 7.60692 14.4925 7.69289 14.5584C7.77886 14.6244 7.87699 14.6728 7.98166 14.7009L8.19619 14.7289C8.37768 14.7288 8.55405 14.6688 8.69799 14.5583C8.84194 14.4477 8.94542 14.2928 8.99243 14.1175L9.32742 12.8675C9.62941 13.1134 9.96358 13.3163 10.3341 13.4583L9.42314 14.3675C9.34653 14.4441 9.28576 14.5351 9.2443 14.6352C9.20284 14.7353 9.1815 14.8425 9.1815 14.9509C9.1815 15.0592 9.20284 15.1665 9.2443 15.2666C9.28576 15.3667 9.34653 15.4576 9.42314 15.5342C9.57785 15.689 9.78769 15.7759 10.0065 15.7759C10.1148 15.7759 10.2221 15.7545 10.3222 15.7131C10.4223 15.6716 10.5132 15.6108 10.5898 15.5342L11.1724 14.9509H11.3803L10.8308 16.6003C10.7877 16.7308 10.7762 16.8697 10.7973 17.0055C10.8183 17.1413 10.8713 17.2702 10.9518 17.3816C11.0324 17.493 11.1382 17.5836 11.2606 17.6462C11.383 17.7087 11.5184 17.7413 11.6559 17.7413C11.7933 17.7413 11.9288 17.7087 12.0512 17.6462C12.1736 17.5836 12.2794 17.493 12.3599 17.3816C12.4405 17.2702 12.4934 17.1413 12.5145 17.0055C12.5355 16.8697 12.5241 16.7308 12.481 16.6003L11.9315 14.9509H12.1394L12.7228 15.5342C12.8775 15.689 13.0873 15.7759 13.3061 15.7759C13.5249 15.7759 13.7348 15.689 13.8895 15.5342C14.0442 15.3795 14.1311 15.1697 14.1311 14.9509C14.1311 14.7321 14.0442 14.5222 13.8895 14.3675L12.9802 13.4574C13.3452 13.3152 13.685 13.1155 13.9868 12.8658L14.3218 14.1175C14.3688 14.2928 14.4723 14.4477 14.6163 14.5583C14.7602 14.6688 14.9366 14.7288 15.1181 14.7289L15.3326 14.7009C15.4373 14.6728 15.5354 14.6244 15.6214 14.5584C15.7073 14.4925 15.7795 14.4102 15.8336 14.3163C15.8878 14.2225 15.923 14.1189 15.9371 14.0114C15.9512 13.904 15.944 13.7948 15.9159 13.6901L15.5884 12.4689L16.9597 14.0152C17.0511 14.1183 17.1658 14.1982 17.2941 14.2483C17.4225 14.2983 17.5609 14.3172 17.698 14.3033C17.8351 14.2894 17.9669 14.2432 18.0826 14.1683C18.1983 14.0935 18.2945 13.9923 18.3634 13.8729C18.4323 13.7536 18.4719 13.6196 18.4788 13.482C18.4858 13.3444 18.46 13.2071 18.4035 13.0814C18.347 12.9558 18.2614 12.8453 18.1538 12.7592C18.0463 12.6731 17.9198 12.6138 17.7848 12.5861ZM11.6559 12.063C10.5181 12.063 9.59311 11.138 9.59311 10.0002C9.59311 8.86238 10.5181 7.93743 11.6559 7.93743C12.7937 7.93743 13.7187 8.86238 13.7187 10.0002C13.7187 11.138 12.7937 12.063 11.6559 12.063Z" fill="#54B6E9"/>
</svg>
